# Blender 3.5.1
# www.blender.org
mtllib paddedtable.mtl
o Cube
v -1.761699 0.175098 -3.181355
v -1.596910 0.175098 -3.346146
v -1.756084 0.175098 -3.224007
v -1.739622 0.175098 -3.263751
v -1.713434 0.175098 -3.297880
v -1.679304 0.175098 -3.324068
v -1.639560 0.175098 -3.340531
v -1.593597 0.008529 -3.295600
v -1.711154 0.008529 -3.178043
v -1.626366 0.008529 -3.291286
v -1.653814 0.008529 -3.279917
v -1.677384 0.008529 -3.261830
v -1.695470 0.008529 -3.238260
v -1.706840 0.008529 -3.210812
v 1.596314 0.175098 -3.346146
v 1.762038 0.175098 -3.180422
v 1.639207 0.175098 -3.340499
v 1.679176 0.175098 -3.323943
v 1.713498 0.175098 -3.297606
v 1.739835 0.175098 -3.263284
v 1.756391 0.175098 -3.223315
v 1.711492 0.008529 -3.177109
v 1.593001 0.008529 -3.295600
v 1.707147 0.008529 -3.210120
v 1.695684 0.008529 -3.237793
v 1.677449 0.008529 -3.261557
v 1.653685 0.008529 -3.279792
v 1.626012 0.008529 -3.291255
v -1.597316 0.175098 2.330860
v -1.761699 0.175098 2.166476
v -1.639861 0.175098 2.325258
v -1.679508 0.175098 2.308837
v -1.713553 0.175098 2.282713
v -1.739676 0.175098 2.248668
v -1.756098 0.175098 2.209022
v -1.711154 0.008529 2.163163
v -1.594003 0.008529 2.280315
v -1.706854 0.008529 2.195827
v -1.695525 0.008529 2.223177
v -1.677503 0.008529 2.246664
v -1.654017 0.008529 2.264685
v -1.626667 0.008529 2.276014
v 1.762038 0.175098 2.165659
v 1.596837 0.175098 2.330860
v 1.756409 0.175098 2.208416
v 1.739905 0.175098 2.248259
v 1.713652 0.175098 2.282474
v 1.679437 0.175098 2.308727
v 1.639594 0.175098 2.325231
v 1.593524 0.008529 2.280315
v 1.711492 0.008529 2.162346
v 1.626399 0.008529 2.275986
v 1.653947 0.008529 2.264576
v 1.677602 0.008529 2.246424
v 1.695754 0.008529 2.222769
v 1.707165 0.008529 2.195221
v -1.639560 0.008529 -3.340531
v -1.596910 0.008529 -3.346146
v -1.679304 0.008529 -3.324068
v -1.713434 0.008529 -3.297880
v -1.739622 0.008529 -3.263751
v -1.756084 0.008529 -3.224007
v -1.761699 0.008529 -3.181355
v 1.596314 0.008529 -3.346146
v 1.639207 0.008529 -3.340499
v 1.679176 0.008529 -3.323943
v 1.713498 0.008529 -3.297606
v 1.739835 0.008529 -3.263284
v 1.756391 0.008529 -3.223315
v 1.762038 0.008529 -3.180422
v -1.597316 0.008529 2.330860
v -1.639861 0.008529 2.325258
v -1.679508 0.008529 2.308837
v -1.713553 0.008529 2.282713
v -1.739676 0.008529 2.248668
v -1.756098 0.008529 2.209022
v -1.761699 0.008529 2.166476
v 1.762038 0.008529 2.165659
v 1.756409 0.008529 2.208416
v 1.739905 0.008529 2.248259
v 1.713652 0.008529 2.282474
v 1.679437 0.008529 2.308727
v 1.639594 0.008529 2.325231
v 1.596837 0.008529 2.330860
v -1.593597 -0.192155 -3.295600
v -1.711154 -0.192155 -3.178043
v -1.626366 -0.192155 -3.291286
v -1.653814 -0.192155 -3.279917
v -1.677384 -0.192155 -3.261830
v -1.695470 -0.192155 -3.238260
v -1.706840 -0.192155 -3.210812
v 1.711492 -0.192155 -3.177109
v 1.593001 -0.192155 -3.295600
v 1.707147 -0.192155 -3.210120
v 1.695684 -0.192155 -3.237793
v 1.677449 -0.192155 -3.261557
v 1.653685 -0.192155 -3.279792
v 1.626012 -0.192155 -3.291255
v -1.711154 -0.192155 2.163163
v -1.594003 -0.192155 2.280315
v -1.706854 -0.192155 2.195827
v -1.695525 -0.192155 2.223177
v -1.677503 -0.192155 2.246664
v -1.654017 -0.192155 2.264685
v -1.626667 -0.192155 2.276014
v 1.593524 -0.192155 2.280315
v 1.711492 -0.192155 2.162346
v 1.626399 -0.192155 2.275986
v 1.653947 -0.192155 2.264576
v 1.677602 -0.192155 2.246424
v 1.695754 -0.192155 2.222769
v 1.707165 -0.192155 2.195221
vn -0.0000 -0.0000 -1.0000
vn -0.0000 -0.0000 1.0000
vn -0.1305 -0.0000 -0.9914
vn -0.3827 -0.0000 -0.9239
vn -0.6088 -0.0000 -0.7934
vn -0.7934 -0.0000 -0.6088
vn -0.9239 -0.0000 -0.3827
vn -0.9914 -0.0000 -0.1305
vn -0.9239 -0.0000 0.3827
vn 0.1305 -0.0000 -0.9914
vn 0.3827 -0.0000 -0.9239
vn 0.6088 -0.0000 -0.7934
vn 0.7934 -0.0000 -0.6088
vn 0.9239 -0.0000 -0.3827
vn 0.9914 -0.0000 -0.1305
vn -0.0000 1.0000 -0.0000
vn -0.1305 -0.0000 0.9914
vn -0.3827 -0.0000 0.9239
vn -0.6088 -0.0000 0.7934
vn -0.7934 -0.0000 0.6088
vn -0.9914 -0.0000 0.1305
vn -1.0000 -0.0000 -0.0000
vn 0.9914 -0.0000 0.1305
vn 0.9239 -0.0000 0.3827
vn 0.7934 -0.0000 0.6088
vn 0.6088 -0.0000 0.7934
vn 0.3827 -0.0000 0.9239
vn 0.1305 -0.0000 0.9914
vn 1.0000 -0.0000 -0.0000
vn -0.0000 -1.0000 -0.0000
vn 0.6088 -0.0000 -0.7933
vt 0.854138 0.036219
vt 0.021007 0.708624
vt 0.017777 0.694761
vt 0.825615 0.007696
vt 0.020359 0.706383
vt 0.853167 0.028837
vt 0.019741 0.704107
vt 0.850317 0.021957
vt 0.019172 0.701818
vt 0.845784 0.016050
vt 0.018653 0.699502
vt 0.839877 0.011517
vt 0.018188 0.697150
vt 0.832997 0.008667
vt 0.029598 0.693380
vt 0.032050 0.704818
vt 0.029835 0.695436
vt 0.030073 0.697325
vt 0.030403 0.699216
vt 0.030803 0.701089
vt 0.031400 0.702875
vt 0.000094 0.511702
vt 0.272901 0.007696
vt 0.244216 0.036381
vt 0.000466 0.497233
vt 0.000026 0.509310
vt 0.265476 0.008673
vt 0.000000 0.506895
vt 0.258558 0.011539
vt 0.000031 0.504492
vt 0.252617 0.016097
vt 0.000119 0.502088
vt 0.248058 0.022038
vt 0.000265 0.499671
vt 0.245193 0.028956
vt 0.012283 0.498823
vt 0.012017 0.510752
vt 0.012007 0.500899
vt 0.011746 0.502810
vt 0.011699 0.504760
vt 0.011726 0.506716
vt 0.011849 0.508649
vt 0.122465 0.006785
vt 0.825685 0.990327
vt 0.854138 0.961874
vt 0.123514 0.995472
vt 0.833049 0.989358
vt 0.123558 0.004538
vt 0.839912 0.986515
vt 0.124706 0.002265
vt 0.027827 0.048079
vt 0.845805 0.981993
vt 0.125907 0.000000
vt 0.125439 1.000000
vt 0.850326 0.976101
vt 0.030293 0.048079
vt 0.853169 0.969238
vt 0.124482 0.997779
vt 0.134924 0.991078
vt 0.133835 0.011797
vt 0.135651 0.992929
vt 0.032376 0.048079
vt 0.031993 0.048079
vt 0.136467 0.994489
vt 0.136641 0.006753
vt 0.034076 0.048079
vt 0.030293 0.048079
vt 0.135604 0.008269
vt 0.134678 0.009909
vt 0.244215 0.961733
vt 0.046446 0.192596
vt 0.272810 0.990327
vt 0.050327 0.178591
vt 0.245190 0.969133
vt 0.046961 0.190261
vt 0.248046 0.976030
vt 0.047520 0.187910
vt 0.252591 0.981952
vt 0.048131 0.185576
vt 0.258513 0.986496
vt 0.048801 0.183251
vt 0.265409 0.989353
vt 0.049533 0.180924
vt 0.061520 0.183071
vt 0.058256 0.194581
vt 0.060736 0.185025
vt 0.060019 0.186825
vt 0.059509 0.188719
vt 0.058941 0.190601
vt 0.058605 0.192505
vt 0.026839 0.695688
vt 0.026712 0.693465
vt 0.027145 0.697815
vt 0.027552 0.699868
vt 0.028058 0.701872
vt 0.028644 0.703895
vt 0.029454 0.705949
vt 0.009097 0.511226
vt 0.008808 0.508963
vt 0.008717 0.506777
vt 0.008738 0.504648
vt 0.008867 0.502547
vt 0.009071 0.500405
vt 0.009486 0.498204
vt 0.131054 0.010800
vt 0.131955 0.008653
vt 0.133035 0.006627
vt 0.027827 0.057649
vt 0.134392 0.004591
vt 0.034459 0.050983
vt 0.030293 0.057649
vt 0.031993 0.050983
vt 0.134059 0.996285
vt 0.132971 0.994139
vt 0.132168 0.991966
vt 0.055322 0.194331
vt 0.055601 0.192074
vt 0.056061 0.189953
vt 0.056572 0.187881
vt 0.057235 0.185855
vt 0.057971 0.183811
vt 0.058924 0.181764
vt 0.106439 0.519167
vt 0.041431 0.691325
vt 0.108295 0.517311
vt 0.043697 0.701761
vt 0.106956 0.519098
vt 0.041779 0.693187
vt 0.107389 0.518919
vt 0.042112 0.694866
vt 0.107762 0.518633
vt 0.042466 0.696545
vt 0.108047 0.518261
vt 0.042842 0.698220
vt 0.108227 0.517828
vt 0.043237 0.699886
vt 0.054258 0.517296
vt 0.024371 0.499569
vt 0.056129 0.519167
vt 0.024190 0.510439
vt 0.054327 0.517817
vt 0.024281 0.501489
vt 0.054508 0.518254
vt 0.024221 0.503228
vt 0.054795 0.518629
vt 0.024184 0.504973
vt 0.055171 0.518917
vt 0.024169 0.506721
vt 0.055607 0.519098
vt 0.024173 0.508468
vt 0.108295 0.432984
vt 0.145742 0.986499
vt 0.106445 0.431134
vt 0.144648 0.017280
vt 0.108227 0.432468
vt 0.146480 0.988196
vt 0.147175 0.989775
vt 0.108048 0.432036
vt 0.031993 0.059609
vt 0.107763 0.431665
vt 0.147175 0.012543
vt 0.030293 0.059609
vt 0.107393 0.431381
vt 0.146356 0.014048
vt 0.106961 0.431202
vt 0.145548 0.015562
vt 0.056120 0.431134
vt 0.073133 0.186871
vt 0.054258 0.432996
vt 0.070189 0.197376
vt 0.055601 0.431202
vt 0.072558 0.188715
vt 0.055166 0.431382
vt 0.072058 0.190390
vt 0.054793 0.431669
vt 0.071577 0.192074
vt 0.054506 0.432042
vt 0.071115 0.193767
vt 0.054326 0.432477
vt 0.070674 0.195462
s 0
f 58/92/1 15/22/1 64/98/1
f 84/122/2 29/43/2 71/105/2
f 57/91/3 2/3/3 58/92/3
f 59/93/4 7/13/4 57/91/4
f 60/94/5 6/11/5 59/93/5
f 61/95/6 5/9/6 60/94/6
f 62/96/7 4/7/7 61/95/7
f 63/97/8 3/5/8 62/96/8
f 101/156/9 39/64/9 38/61/9
f 17/26/10 64/98/10 15/22/10
f 18/28/11 65/99/11 17/26/11
f 19/30/12 66/100/12 18/28/12
f 20/32/13 67/101/13 19/30/13
f 21/34/14 68/102/14 20/32/14
f 16/25/15 69/103/15 21/34/15
f 32/49/16 29/44/16 30/45/16
f 31/48/17 71/105/17 29/43/17
f 32/50/18 72/106/18 31/48/18
f 33/53/19 73/107/19 32/50/19
f 34/56/20 74/108/20 33/51/20
f 35/58/9 75/113/9 34/54/9
f 30/46/21 76/114/21 35/58/21
f 77/115/22 1/2/22 63/97/22
f 45/75/23 78/116/23 43/71/23
f 46/77/24 79/117/24 45/75/24
f 47/79/25 80/118/25 46/77/25
f 48/81/26 81/119/26 47/79/26
f 49/83/27 82/120/27 48/81/27
f 44/73/28 83/121/28 49/83/28
f 70/104/29 43/71/29 78/116/29
f 10/17/30 58/92/30 8/15/30
f 59/93/30 10/17/30 11/18/30
f 60/94/30 11/18/30 12/19/30
f 61/95/30 12/19/30 13/20/30
f 14/21/30 61/95/30 13/20/30
f 63/97/30 14/21/30 9/16/30
f 64/98/30 28/42/30 23/37/30
f 28/42/30 66/100/30 27/41/30
f 27/41/30 67/101/30 26/40/30
f 26/40/30 68/102/30 25/39/30
f 68/102/30 24/38/30 25/39/30
f 24/38/30 70/104/30 22/36/30
f 58/92/30 23/37/30 8/15/30
f 71/105/30 42/69/30 37/60/30
f 72/106/30 41/68/30 42/69/30
f 73/107/30 40/65/30 41/68/30
f 40/66/30 75/112/30 39/62/30
f 39/64/30 76/114/30 38/61/30
f 38/61/30 77/115/30 36/59/30
f 36/59/30 63/97/30 9/16/30
f 78/116/30 56/90/30 51/85/30
f 56/90/30 80/118/30 55/89/30
f 80/118/30 54/88/30 55/89/30
f 54/88/30 82/120/30 53/87/30
f 82/120/30 52/86/30 53/87/30
f 52/86/30 84/122/30 50/84/30
f 70/104/30 51/85/30 22/36/30
f 84/122/30 37/60/30 50/84/30
f 86/125/30 93/139/30 92/137/30
f 90/134/7 14/21/7 13/20/7
f 99/152/21 38/61/21 36/59/21
f 91/136/8 9/16/8 14/21/8
f 86/126/22 36/59/22 9/16/22
f 98/150/10 23/37/10 28/42/10
f 112/180/23 51/85/23 56/90/23
f 97/148/11 28/42/11 27/41/11
f 111/178/24 56/90/24 55/89/24
f 96/146/12 27/41/12 26/40/12
f 110/176/25 55/89/25 54/88/25
f 95/144/13 26/40/13 25/39/13
f 109/174/26 54/88/26 53/87/26
f 94/142/14 25/39/14 24/38/14
f 108/172/27 53/87/27 52/86/27
f 92/138/15 24/38/15 22/36/15
f 106/168/28 52/86/28 50/84/28
f 93/140/1 8/15/1 23/37/1
f 107/170/29 22/36/29 51/85/29
f 105/166/17 37/60/17 42/69/17
f 85/124/3 10/17/3 8/15/3
f 100/154/2 50/84/2 37/60/2
f 104/164/18 42/69/18 41/68/18
f 87/128/4 11/18/4 10/17/4
f 103/161/19 41/68/19 40/65/19
f 88/130/5 12/19/5 11/18/5
f 102/159/20 40/67/20 39/63/20
f 89/132/6 13/20/6 12/19/6
f 58/92/1 2/3/1 15/22/1
f 84/122/2 44/73/2 29/43/2
f 57/91/3 7/13/3 2/3/3
f 59/93/4 6/11/4 7/13/4
f 60/94/5 5/9/5 6/11/5
f 61/95/6 4/7/6 5/9/6
f 62/96/7 3/5/7 4/7/7
f 63/97/8 1/2/8 3/5/8
f 101/156/9 102/157/9 39/64/9
f 17/26/10 65/99/10 64/98/10
f 18/28/11 66/100/11 65/99/11
f 19/30/31 67/101/31 66/100/31
f 20/32/13 68/102/13 67/101/13
f 21/34/14 69/103/14 68/102/14
f 16/25/15 70/104/15 69/103/15
f 45/74/16 43/70/16 49/82/16
f 43/70/16 16/24/16 30/45/16
f 16/24/16 21/35/16 20/33/16
f 20/33/16 19/31/16 15/23/16
f 19/31/16 18/29/16 15/23/16
f 18/29/16 17/27/16 15/23/16
f 15/23/16 2/4/16 1/1/16
f 2/4/16 7/14/16 3/6/16
f 7/14/16 6/12/16 5/10/16
f 5/10/16 4/8/16 3/6/16
f 3/6/16 1/1/16 2/4/16
f 1/1/16 30/45/16 16/24/16
f 30/45/16 35/57/16 32/49/16
f 35/57/16 34/55/16 32/49/16
f 34/55/16 33/52/16 32/49/16
f 32/49/16 31/47/16 29/44/16
f 29/44/16 44/72/16 30/45/16
f 44/72/16 49/82/16 43/70/16
f 30/45/16 44/72/16 43/70/16
f 49/82/16 48/80/16 45/74/16
f 48/80/16 47/78/16 45/74/16
f 47/78/16 46/76/16 45/74/16
f 16/24/16 20/33/16 15/23/16
f 7/14/16 5/10/16 3/6/16
f 1/1/16 16/24/16 15/23/16
f 31/48/17 72/106/17 71/105/17
f 32/50/18 73/107/18 72/106/18
f 33/53/19 74/109/19 73/107/19
f 34/56/20 75/111/20 74/108/20
f 35/58/9 76/114/9 75/113/9
f 30/46/21 77/115/21 76/114/21
f 77/115/22 30/46/22 1/2/22
f 45/75/23 79/117/23 78/116/23
f 46/77/24 80/118/24 79/117/24
f 47/79/25 81/119/25 80/118/25
f 48/81/26 82/120/26 81/119/26
f 49/83/27 83/121/27 82/120/27
f 44/73/28 84/122/28 83/121/28
f 70/104/29 16/25/29 43/71/29
f 10/17/30 57/91/30 58/92/30
f 59/93/30 57/91/30 10/17/30
f 60/94/30 59/93/30 11/18/30
f 61/95/30 60/94/30 12/19/30
f 14/21/30 62/96/30 61/95/30
f 63/97/30 62/96/30 14/21/30
f 64/98/30 65/99/30 28/42/30
f 28/42/30 65/99/30 66/100/30
f 27/41/30 66/100/30 67/101/30
f 26/40/30 67/101/30 68/102/30
f 68/102/30 69/103/30 24/38/30
f 24/38/30 69/103/30 70/104/30
f 58/92/30 64/98/30 23/37/30
f 71/105/30 72/106/30 42/69/30
f 72/106/30 73/107/30 41/68/30
f 73/107/30 74/109/30 40/65/30
f 40/66/30 74/110/30 75/112/30
f 39/64/30 75/113/30 76/114/30
f 38/61/30 76/114/30 77/115/30
f 36/59/30 77/115/30 63/97/30
f 78/116/30 79/117/30 56/90/30
f 56/90/30 79/117/30 80/118/30
f 80/118/30 81/119/30 54/88/30
f 54/88/30 81/119/30 82/120/30
f 82/120/30 83/121/30 52/86/30
f 52/86/30 83/121/30 84/122/30
f 70/104/30 78/116/30 51/85/30
f 84/122/30 71/105/30 37/60/30
f 101/155/30 99/151/30 105/165/30
f 99/151/30 86/125/30 107/169/30
f 86/125/30 91/135/30 85/123/30
f 91/135/30 90/133/30 87/127/30
f 85/123/30 91/135/30 87/127/30
f 90/133/30 89/131/30 88/129/30
f 88/129/30 87/127/30 90/133/30
f 85/123/30 93/139/30 86/125/30
f 93/139/30 98/149/30 94/141/30
f 98/149/30 97/147/30 96/145/30
f 96/145/30 95/143/30 94/141/30
f 94/141/30 92/137/30 93/139/30
f 92/137/30 107/169/30 86/125/30
f 107/169/30 112/179/30 108/171/30
f 112/179/30 111/177/30 109/173/30
f 111/177/30 110/175/30 109/173/30
f 109/173/30 108/171/30 112/179/30
f 108/171/30 106/167/30 107/169/30
f 106/167/30 100/153/30 99/151/30
f 100/153/30 105/165/30 99/151/30
f 105/165/30 104/163/30 103/160/30
f 103/160/30 102/158/30 105/165/30
f 102/158/30 101/155/30 105/165/30
f 99/151/30 107/169/30 106/167/30
f 98/149/30 96/145/30 94/141/30
f 90/134/7 91/136/7 14/21/7
f 99/152/21 101/156/21 38/61/21
f 91/136/8 86/126/8 9/16/8
f 86/126/22 99/152/22 36/59/22
f 98/150/10 93/140/10 23/37/10
f 112/180/23 107/170/23 51/85/23
f 97/148/11 98/150/11 28/42/11
f 111/178/24 112/180/24 56/90/24
f 96/146/12 97/148/12 27/41/12
f 110/176/25 111/178/25 55/89/25
f 95/144/13 96/146/13 26/40/13
f 109/174/26 110/176/26 54/88/26
f 94/142/14 95/144/14 25/39/14
f 108/172/27 109/174/27 53/87/27
f 92/138/15 94/142/15 24/38/15
f 106/168/28 108/172/28 52/86/28
f 93/140/1 85/124/1 8/15/1
f 107/170/29 92/138/29 22/36/29
f 105/166/17 100/154/17 37/60/17
f 85/124/3 87/128/3 10/17/3
f 100/154/2 106/168/2 50/84/2
f 104/164/18 105/166/18 42/69/18
f 87/128/4 88/130/4 11/18/4
f 103/161/19 104/164/19 41/68/19
f 88/130/5 89/132/5 12/19/5
f 102/159/20 103/162/20 40/67/20
f 89/132/6 90/134/6 13/20/6
