# Blender 3.5.1
# www.blender.org
mtllib table.mtl
o Cube
v -1.400089 0.154956 -2.667782
v -1.235299 0.154956 -2.832572
v -1.394474 0.154956 -2.710433
v -1.378011 0.154956 -2.750177
v -1.351823 0.154956 -2.784306
v -1.317694 0.154956 -2.810494
v -1.277950 0.154956 -2.826957
v -1.231986 -0.011614 -2.782027
v -1.349543 -0.011614 -2.664469
v -1.264755 -0.011614 -2.777713
v -1.292203 -0.011614 -2.766343
v -1.315773 -0.011614 -2.748257
v -1.333860 -0.011614 -2.724686
v -1.345229 -0.011614 -2.697238
v 1.234703 0.154956 -2.832572
v 1.400427 0.154956 -2.666848
v 1.277595 0.154956 -2.826925
v 1.317565 0.154956 -2.810369
v 1.351887 0.154956 -2.784033
v 1.378224 0.154956 -2.749710
v 1.394780 0.154956 -2.709741
v 1.349881 -0.011614 -2.663536
v 1.231390 -0.011614 -2.782027
v 1.345535 -0.011614 -2.696546
v 1.334073 -0.011614 -2.724219
v 1.315838 -0.011614 -2.747983
v 1.292074 -0.011614 -2.766218
v 1.264401 -0.011614 -2.777681
v -1.235705 0.154956 2.832394
v -1.400089 0.154956 2.668010
v -1.278251 0.154956 2.826792
v -1.317897 0.154956 2.810370
v -1.351942 0.154956 2.784247
v -1.378065 0.154956 2.750202
v -1.394487 0.154956 2.710556
v -1.349543 -0.011614 2.664697
v -1.232392 -0.011614 2.781848
v -1.345243 -0.011614 2.697361
v -1.333914 -0.011614 2.724711
v -1.315892 -0.011614 2.748198
v -1.292406 -0.011614 2.766219
v -1.265056 -0.011614 2.777548
v 1.400427 0.154956 2.667193
v 1.235226 0.154956 2.832394
v 1.394798 0.154956 2.709950
v 1.378294 0.154956 2.749793
v 1.352040 0.154956 2.784008
v 1.317826 0.154956 2.810261
v 1.277983 0.154956 2.826765
v 1.231913 -0.011614 2.781848
v 1.349881 -0.011614 2.663880
v 1.264788 -0.011614 2.777520
v 1.292336 -0.011614 2.766109
v 1.315991 -0.011614 2.747958
v 1.334143 -0.011614 2.724302
v 1.345553 -0.011614 2.696755
v -1.277950 -0.011614 -2.826957
v -1.235299 -0.011614 -2.832572
v -1.317694 -0.011614 -2.810494
v -1.351823 -0.011614 -2.784306
v -1.378011 -0.011614 -2.750177
v -1.394474 -0.011614 -2.710433
v -1.400089 -0.011614 -2.667782
v 1.234703 -0.011614 -2.832572
v 1.277595 -0.011614 -2.826925
v 1.317565 -0.011614 -2.810369
v 1.351887 -0.011614 -2.784033
v 1.378224 -0.011614 -2.749710
v 1.394780 -0.011614 -2.709741
v 1.400427 -0.011614 -2.666848
v -1.235705 -0.011614 2.832394
v -1.278251 -0.011614 2.826792
v -1.317897 -0.011614 2.810370
v -1.351942 -0.011614 2.784247
v -1.378065 -0.011614 2.750202
v -1.394487 -0.011614 2.710556
v -1.400089 -0.011614 2.668010
v 1.400427 -0.011614 2.667193
v 1.394798 -0.011614 2.709950
v 1.378294 -0.011614 2.749793
v 1.352040 -0.011614 2.784008
v 1.317826 -0.011614 2.810261
v 1.277983 -0.011614 2.826765
v 1.235226 -0.011614 2.832394
v -1.231986 -0.212298 -2.782027
v -1.349543 -0.212298 -2.664469
v -1.264755 -0.212298 -2.777713
v -1.292203 -0.212298 -2.766343
v -1.315773 -0.212298 -2.748257
v -1.333860 -0.212298 -2.724686
v -1.345229 -0.212298 -2.697238
v 1.349881 -0.212298 -2.663536
v 1.231390 -0.212298 -2.782027
v 1.345535 -0.212298 -2.696546
v 1.334073 -0.212298 -2.724219
v 1.315838 -0.212298 -2.747983
v 1.292074 -0.212298 -2.766218
v 1.264401 -0.212298 -2.777681
v -1.349543 -0.212298 2.664697
v -1.232392 -0.212298 2.781848
v -1.345243 -0.212298 2.697361
v -1.333914 -0.212298 2.724711
v -1.315892 -0.212298 2.748198
v -1.292406 -0.212298 2.766219
v -1.265056 -0.212298 2.777548
v 1.231913 -0.212298 2.781848
v 1.349881 -0.212298 2.663880
v 1.264788 -0.212298 2.777520
v 1.292336 -0.212298 2.766109
v 1.315991 -0.212298 2.747958
v 1.334143 -0.212298 2.724302
v 1.345553 -0.212298 2.696755
vn -0.0000 -0.0000 -1.0000
vn -0.0000 -0.0000 1.0000
vn -0.1305 -0.0000 -0.9914
vn -0.3827 -0.0000 -0.9239
vn -0.6088 -0.0000 -0.7934
vn -0.7934 -0.0000 -0.6088
vn -0.9239 -0.0000 -0.3827
vn -0.9914 -0.0000 -0.1305
vn -0.9239 -0.0000 0.3827
vn 0.1305 -0.0000 -0.9914
vn 0.3827 -0.0000 -0.9239
vn 0.6088 -0.0000 -0.7934
vn 0.7934 -0.0000 -0.6088
vn 0.9239 -0.0000 -0.3827
vn 0.9914 -0.0000 -0.1305
vn -0.0000 1.0000 -0.0000
vn -0.1305 -0.0000 0.9914
vn -0.3827 -0.0000 0.9239
vn -0.6088 -0.0000 0.7934
vn -0.7934 -0.0000 0.6088
vn -0.9914 -0.0000 0.1305
vn -1.0000 -0.0000 -0.0000
vn 0.9914 -0.0000 0.1305
vn 0.9239 -0.0000 0.3827
vn 0.7934 -0.0000 0.6088
vn 0.6088 -0.0000 0.7934
vn 0.3827 -0.0000 0.9239
vn 0.1305 -0.0000 0.9914
vn 1.0000 -0.0000 -0.0000
vn -0.0000 -1.0000 -0.0000
vt 0.209433 0.949880
vt 0.015986 0.681887
vt 0.012705 0.666749
vt 0.236694 0.977141
vt 0.015319 0.679437
vt 0.210362 0.956936
vt 0.014685 0.676951
vt 0.213085 0.963511
vt 0.014104 0.674451
vt 0.217417 0.969157
vt 0.013579 0.671922
vt 0.223063 0.973489
vt 0.013112 0.669355
vt 0.229638 0.976212
vt 0.025590 0.665444
vt 0.028067 0.677932
vt 0.025814 0.667686
vt 0.026041 0.669744
vt 0.026369 0.671808
vt 0.026772 0.673853
vt 0.027391 0.675806
vt 0.000041 0.512334
vt 0.645311 0.977141
vt 0.672727 0.949725
vt 0.000644 0.496598
vt 0.000000 0.509731
vt 0.652407 0.976207
vt 0.000005 0.507104
vt 0.659019 0.973468
vt 0.000071 0.504489
vt 0.664697 0.969111
vt 0.000200 0.501876
vt 0.669054 0.963433
vt 0.000391 0.499248
vt 0.671793 0.956821
vt 0.013478 0.498489
vt 0.013027 0.511465
vt 0.013149 0.500743
vt 0.012840 0.502820
vt 0.012762 0.504941
vt 0.012765 0.507069
vt 0.012873 0.509175
vt 0.121464 0.007343
vt 0.236627 0.039976
vt 0.209433 0.067170
vt 0.122438 0.995041
vt 0.229588 0.040903
vt 0.122677 0.004911
vt 0.223030 0.043619
vt 0.123952 0.002451
vt 0.134126 0.205001
vt 0.217398 0.047941
vt 0.125283 0.000000
vt 0.124455 1.000000
vt 0.213076 0.053573
vt 0.136807 0.205001
vt 0.210359 0.060132
vt 0.123451 0.997567
vt 0.134927 0.990453
vt 0.133778 0.012922
vt 0.135687 0.992478
vt 0.139073 0.205001
vt 0.138657 0.205001
vt 0.136549 0.994189
vt 0.136885 0.007465
vt 0.140922 0.205001
vt 0.136807 0.205001
vt 0.135740 0.009103
vt 0.134715 0.010876
vt 0.672727 0.067305
vt 0.054668 0.166549
vt 0.645397 0.039976
vt 0.059079 0.151366
vt 0.671796 0.060232
vt 0.055259 0.164015
vt 0.669065 0.053641
vt 0.055899 0.161466
vt 0.664722 0.047981
vt 0.056595 0.158935
vt 0.659062 0.043637
vt 0.057355 0.156414
vt 0.652471 0.040907
vt 0.058183 0.153893
vt 0.071196 0.156389
vt 0.067489 0.168868
vt 0.070317 0.158504
vt 0.069512 0.160453
vt 0.068931 0.162507
vt 0.068288 0.164547
vt 0.067897 0.166614
vt 0.022549 0.667909
vt 0.022449 0.665488
vt 0.022847 0.670229
vt 0.023255 0.672469
vt 0.023772 0.674658
vt 0.024375 0.676870
vt 0.025222 0.679118
vt 0.009842 0.511940
vt 0.009559 0.509474
vt 0.009490 0.507095
vt 0.009542 0.504778
vt 0.009711 0.502494
vt 0.009962 0.500167
vt 0.010443 0.497778
vt 0.130762 0.011805
vt 0.131766 0.009479
vt 0.132963 0.007288
vt 0.134126 0.215408
vt 0.134463 0.005088
vt 0.141338 0.208159
vt 0.136807 0.215408
vt 0.138657 0.208159
vt 0.133898 0.996104
vt 0.132750 0.993750
vt 0.131913 0.991372
vt 0.064300 0.168555
vt 0.064635 0.166104
vt 0.065163 0.163803
vt 0.065748 0.161555
vt 0.066496 0.159360
vt 0.067324 0.157147
vt 0.068389 0.154932
vt 0.701856 0.121737
vt 0.038503 0.663408
vt 0.689420 0.134174
vt 0.040791 0.674803
vt 0.698389 0.122194
vt 0.038851 0.665440
vt 0.695486 0.123397
vt 0.039184 0.667273
vt 0.692992 0.125310
vt 0.039541 0.669106
vt 0.691079 0.127804
vt 0.039921 0.670935
vt 0.689876 0.130707
vt 0.040323 0.672754
vt 0.974996 0.134273
vt 0.026618 0.499464
vt 0.962461 0.121737
vt 0.026276 0.511286
vt 0.974536 0.130780
vt 0.026495 0.501551
vt 0.973324 0.127853
vt 0.026406 0.503442
vt 0.971395 0.125339
vt 0.026343 0.505339
vt 0.968881 0.123410
vt 0.026303 0.507241
vt 0.965953 0.122197
vt 0.026283 0.509142
vt 0.689420 0.697955
vt 0.146776 0.985653
vt 0.701813 0.710349
vt 0.145481 0.018999
vt 0.689875 0.701410
vt 0.147550 0.987511
vt 0.148280 0.989242
vt 0.691073 0.704304
vt 0.138657 0.217539
vt 0.692980 0.706789
vt 0.148280 0.013873
vt 0.136807 0.217539
vt 0.695464 0.708695
vt 0.147373 0.015501
vt 0.698358 0.709894
vt 0.146478 0.017140
vt 0.962516 0.710349
vt 0.083779 0.160682
vt 0.974996 0.697868
vt 0.080434 0.172071
vt 0.965994 0.709891
vt 0.083129 0.162680
vt 0.968908 0.708683
vt 0.082562 0.164495
vt 0.971411 0.706763
vt 0.082015 0.166321
vt 0.973331 0.704261
vt 0.081490 0.168156
vt 0.974538 0.701346
vt 0.080987 0.169994
s 0
f 58/92/1 15/22/1 64/98/1
f 84/122/2 29/43/2 71/105/2
f 57/91/3 2/3/3 58/92/3
f 59/93/4 7/13/4 57/91/4
f 60/94/5 6/11/5 59/93/5
f 61/95/6 5/9/6 60/94/6
f 62/96/7 4/7/7 61/95/7
f 63/97/8 3/5/8 62/96/8
f 101/156/9 39/64/9 38/61/9
f 17/26/10 64/98/10 15/22/10
f 18/28/11 65/99/11 17/26/11
f 19/30/12 66/100/12 18/28/12
f 20/32/13 67/101/13 19/30/13
f 21/34/14 68/102/14 20/32/14
f 16/25/15 69/103/15 21/34/15
f 32/49/16 29/44/16 30/45/16
f 31/48/17 71/105/17 29/43/17
f 32/50/18 72/106/18 31/48/18
f 33/53/19 73/107/19 32/50/19
f 34/56/20 74/108/20 33/51/20
f 35/58/9 75/113/9 34/54/9
f 30/46/21 76/114/21 35/58/21
f 77/115/22 1/2/22 63/97/22
f 45/75/23 78/116/23 43/71/23
f 46/77/24 79/117/24 45/75/24
f 47/79/25 80/118/25 46/77/25
f 48/81/26 81/119/26 47/79/26
f 49/83/27 82/120/27 48/81/27
f 44/73/28 83/121/28 49/83/28
f 70/104/29 43/71/29 78/116/29
f 10/17/30 58/92/30 8/15/30
f 59/93/30 10/17/30 11/18/30
f 60/94/30 11/18/30 12/19/30
f 61/95/30 12/19/30 13/20/30
f 14/21/30 61/95/30 13/20/30
f 63/97/30 14/21/30 9/16/30
f 64/98/30 28/42/30 23/37/30
f 28/42/30 66/100/30 27/41/30
f 27/41/30 67/101/30 26/40/30
f 26/40/30 68/102/30 25/39/30
f 68/102/30 24/38/30 25/39/30
f 24/38/30 70/104/30 22/36/30
f 58/92/30 23/37/30 8/15/30
f 71/105/30 42/69/30 37/60/30
f 72/106/30 41/68/30 42/69/30
f 73/107/30 40/65/30 41/68/30
f 40/66/30 75/112/30 39/62/30
f 39/64/30 76/114/30 38/61/30
f 38/61/30 77/115/30 36/59/30
f 36/59/30 63/97/30 9/16/30
f 78/116/30 56/90/30 51/85/30
f 56/90/30 80/118/30 55/89/30
f 80/118/30 54/88/30 55/89/30
f 54/88/30 82/120/30 53/87/30
f 82/120/30 52/86/30 53/87/30
f 52/86/30 84/122/30 50/84/30
f 70/104/30 51/85/30 22/36/30
f 84/122/30 37/60/30 50/84/30
f 86/125/30 93/139/30 92/137/30
f 90/134/7 14/21/7 13/20/7
f 99/152/21 38/61/21 36/59/21
f 91/136/8 9/16/8 14/21/8
f 86/126/22 36/59/22 9/16/22
f 98/150/10 23/37/10 28/42/10
f 112/180/23 51/85/23 56/90/23
f 97/148/11 28/42/11 27/41/11
f 111/178/24 56/90/24 55/89/24
f 96/146/12 27/41/12 26/40/12
f 110/176/25 55/89/25 54/88/25
f 95/144/13 26/40/13 25/39/13
f 109/174/26 54/88/26 53/87/26
f 94/142/14 25/39/14 24/38/14
f 108/172/27 53/87/27 52/86/27
f 92/138/15 24/38/15 22/36/15
f 106/168/28 52/86/28 50/84/28
f 93/140/1 8/15/1 23/37/1
f 107/170/29 22/36/29 51/85/29
f 105/166/17 37/60/17 42/69/17
f 85/124/3 10/17/3 8/15/3
f 100/154/2 50/84/2 37/60/2
f 104/164/18 42/69/18 41/68/18
f 87/128/4 11/18/4 10/17/4
f 103/161/19 41/68/19 40/65/19
f 88/130/5 12/19/5 11/18/5
f 102/159/20 40/67/20 39/63/20
f 89/132/6 13/20/6 12/19/6
f 58/92/1 2/3/1 15/22/1
f 84/122/2 44/73/2 29/43/2
f 57/91/3 7/13/3 2/3/3
f 59/93/4 6/11/4 7/13/4
f 60/94/5 5/9/5 6/11/5
f 61/95/6 4/7/6 5/9/6
f 62/96/7 3/5/7 4/7/7
f 63/97/8 1/2/8 3/5/8
f 101/156/9 102/157/9 39/64/9
f 17/26/10 65/99/10 64/98/10
f 18/28/11 66/100/11 65/99/11
f 19/30/12 67/101/12 66/100/12
f 20/32/13 68/102/13 67/101/13
f 21/34/14 69/103/14 68/102/14
f 16/25/15 70/104/15 69/103/15
f 45/74/16 43/70/16 49/82/16
f 43/70/16 16/24/16 30/45/16
f 16/24/16 21/35/16 20/33/16
f 20/33/16 19/31/16 15/23/16
f 19/31/16 18/29/16 15/23/16
f 18/29/16 17/27/16 15/23/16
f 15/23/16 2/4/16 1/1/16
f 2/4/16 7/14/16 3/6/16
f 7/14/16 6/12/16 5/10/16
f 5/10/16 4/8/16 3/6/16
f 3/6/16 1/1/16 2/4/16
f 1/1/16 30/45/16 16/24/16
f 30/45/16 35/57/16 32/49/16
f 35/57/16 34/55/16 32/49/16
f 34/55/16 33/52/16 32/49/16
f 32/49/16 31/47/16 29/44/16
f 29/44/16 44/72/16 30/45/16
f 44/72/16 49/82/16 43/70/16
f 30/45/16 44/72/16 43/70/16
f 49/82/16 48/80/16 45/74/16
f 48/80/16 47/78/16 45/74/16
f 47/78/16 46/76/16 45/74/16
f 16/24/16 20/33/16 15/23/16
f 7/14/16 5/10/16 3/6/16
f 1/1/16 16/24/16 15/23/16
f 31/48/17 72/106/17 71/105/17
f 32/50/18 73/107/18 72/106/18
f 33/53/19 74/109/19 73/107/19
f 34/56/20 75/111/20 74/108/20
f 35/58/9 76/114/9 75/113/9
f 30/46/21 77/115/21 76/114/21
f 77/115/22 30/46/22 1/2/22
f 45/75/23 79/117/23 78/116/23
f 46/77/24 80/118/24 79/117/24
f 47/79/25 81/119/25 80/118/25
f 48/81/26 82/120/26 81/119/26
f 49/83/27 83/121/27 82/120/27
f 44/73/28 84/122/28 83/121/28
f 70/104/29 16/25/29 43/71/29
f 10/17/30 57/91/30 58/92/30
f 59/93/30 57/91/30 10/17/30
f 60/94/30 59/93/30 11/18/30
f 61/95/30 60/94/30 12/19/30
f 14/21/30 62/96/30 61/95/30
f 63/97/30 62/96/30 14/21/30
f 64/98/30 65/99/30 28/42/30
f 28/42/30 65/99/30 66/100/30
f 27/41/30 66/100/30 67/101/30
f 26/40/30 67/101/30 68/102/30
f 68/102/30 69/103/30 24/38/30
f 24/38/30 69/103/30 70/104/30
f 58/92/30 64/98/30 23/37/30
f 71/105/30 72/106/30 42/69/30
f 72/106/30 73/107/30 41/68/30
f 73/107/30 74/109/30 40/65/30
f 40/66/30 74/110/30 75/112/30
f 39/64/30 75/113/30 76/114/30
f 38/61/30 76/114/30 77/115/30
f 36/59/30 77/115/30 63/97/30
f 78/116/30 79/117/30 56/90/30
f 56/90/30 79/117/30 80/118/30
f 80/118/30 81/119/30 54/88/30
f 54/88/30 81/119/30 82/120/30
f 82/120/30 83/121/30 52/86/30
f 52/86/30 83/121/30 84/122/30
f 70/104/30 78/116/30 51/85/30
f 84/122/30 71/105/30 37/60/30
f 101/155/30 99/151/30 105/165/30
f 99/151/30 86/125/30 107/169/30
f 86/125/30 91/135/30 85/123/30
f 91/135/30 90/133/30 87/127/30
f 85/123/30 91/135/30 87/127/30
f 90/133/30 89/131/30 88/129/30
f 88/129/30 87/127/30 90/133/30
f 85/123/30 93/139/30 86/125/30
f 93/139/30 98/149/30 94/141/30
f 98/149/30 97/147/30 96/145/30
f 96/145/30 95/143/30 94/141/30
f 94/141/30 92/137/30 93/139/30
f 92/137/30 107/169/30 86/125/30
f 107/169/30 112/179/30 108/171/30
f 112/179/30 111/177/30 109/173/30
f 111/177/30 110/175/30 109/173/30
f 109/173/30 108/171/30 112/179/30
f 108/171/30 106/167/30 107/169/30
f 106/167/30 100/153/30 99/151/30
f 100/153/30 105/165/30 99/151/30
f 105/165/30 104/163/30 103/160/30
f 103/160/30 102/158/30 105/165/30
f 102/158/30 101/155/30 105/165/30
f 99/151/30 107/169/30 106/167/30
f 98/149/30 96/145/30 94/141/30
f 90/134/7 91/136/7 14/21/7
f 99/152/21 101/156/21 38/61/21
f 91/136/8 86/126/8 9/16/8
f 86/126/22 99/152/22 36/59/22
f 98/150/10 93/140/10 23/37/10
f 112/180/23 107/170/23 51/85/23
f 97/148/11 98/150/11 28/42/11
f 111/178/24 112/180/24 56/90/24
f 96/146/12 97/148/12 27/41/12
f 110/176/25 111/178/25 55/89/25
f 95/144/13 96/146/13 26/40/13
f 109/174/26 110/176/26 54/88/26
f 94/142/14 95/144/14 25/39/14
f 108/172/27 109/174/27 53/87/27
f 92/138/15 94/142/15 24/38/15
f 106/168/28 108/172/28 52/86/28
f 93/140/1 85/124/1 8/15/1
f 107/170/29 92/138/29 22/36/29
f 105/166/17 100/154/17 37/60/17
f 85/124/3 87/128/3 10/17/3
f 100/154/2 106/168/2 50/84/2
f 104/164/18 105/166/18 42/69/18
f 87/128/4 88/130/4 11/18/4
f 103/161/19 104/164/19 41/68/19
f 88/130/5 89/132/5 12/19/5
f 102/159/20 103/162/20 40/67/20
f 89/132/6 90/134/6 13/20/6
